<svg width="20" height="20" viewBox="0 0 20 20" fill="none" xmlns="http://www.w3.org/2000/svg">
<g clip-path="url(#clip0_16898_26)">
<path d="M6.24007 1.09995C5.66007 1.25995 4.92007 1.53995 4.60007 1.69995C4.28007 1.85995 3.50007 1.99995 2.80007 1.99995C0.680069 1.99995 0.800069 1.49995 0.800069 10.6C0.800069 18.14 0.820069 18.42 1.20007 18.8C1.58007 19.18 1.86007 19.2 8.60007 19.2C15.3401 19.2 15.6201 19.18 16.0001 18.8C16.3601 18.44 16.4001 18.14 16.4001 15.4C16.4001 12.64 16.4201 12.4 16.7601 12.4C17.2201 12.4 17.6001 12.02 17.6001 11.56C17.6001 11.36 17.7001 11.2 17.8001 11.2C17.9201 11.2 18.1801 11.02 18.4001 10.8C18.7601 10.44 18.8001 10.14 18.8001 7.99995C18.8001 5.85995 18.8401 5.55995 19.2001 5.19995C19.4201 4.97995 19.6001 4.61995 19.6001 4.39995C19.6001 3.87995 18.9201 3.19995 18.4001 3.19995C17.8801 3.19995 17.2001 3.87995 17.2001 4.39995C17.2001 4.61995 17.3801 4.97995 17.6001 5.19995C17.9601 5.55995 18.0001 5.85995 18.0001 7.87995C18.0001 9.19995 17.9201 10.22 17.8001 10.3C17.7001 10.36 17.6001 10.26 17.6001 10.06C17.6001 9.57995 17.2201 9.19995 16.7601 9.19995C16.4201 9.19995 16.4001 8.93995 16.4001 5.99995C16.4001 2.15995 16.3201 1.99995 14.4601 1.99995C13.7001 1.99995 12.9001 1.81995 12.0201 1.47995C10.3801 0.81995 7.84007 0.63995 6.24007 1.09995ZM11.7001 2.19995C12.3001 2.47995 13.2601 2.71995 14.1001 2.77995L15.5001 2.89995V10.6V18.3H8.60007H1.70007V10.6V2.89995L3.10007 2.79995C3.88007 2.73995 4.78007 2.53995 5.14007 2.33995C6.18007 1.77995 7.18007 1.61995 9.00007 1.67995C10.2801 1.71995 10.9801 1.85995 11.7001 2.19995ZM18.7201 4.21995C18.9201 4.55995 18.4601 4.93995 18.1801 4.65995C17.9401 4.41995 18.1001 3.99995 18.4001 3.99995C18.5001 3.99995 18.6401 4.09995 18.7201 4.21995ZM16.8001 10.8C16.8001 11.24 16.7201 11.6 16.6001 11.6C16.5001 11.6 16.4001 11.24 16.4001 10.8C16.4001 10.36 16.5001 9.99995 16.6001 9.99995C16.7201 9.99995 16.8001 10.36 16.8001 10.8Z" fill="white"/>
<path d="M3.04016 6.23994C2.70016 6.57994 2.70016 14.2199 3.04016 14.5599C3.38016 14.8999 13.8202 14.8999 14.1602 14.5599C14.5002 14.2199 14.5002 6.57994 14.1602 6.23994C13.8202 5.89994 3.38016 5.89994 3.04016 6.23994ZM6.40016 10.3999V13.9999H5.00016H3.60016V10.3999V6.79994H5.00016H6.40016V10.3999ZM10.0002 10.3999V13.9999H8.60016H7.20016V10.3999V6.79994H8.60016H10.0002V10.3999ZM13.6002 10.3999V13.9999H12.2002H10.8002V10.3999V6.79994H12.2002H13.6002V10.3999Z" fill="white"/>
<path d="M4 9.19988C4 9.49988 4.14 9.59988 4.5 9.59988C5.1 9.59988 5.08 9.55988 4.68 10.4999C4.52 10.8999 4.4 11.4799 4.44 11.7799C4.52 12.5399 5.06 12.4399 5.22 11.6199C5.3 11.2599 5.52 10.6199 5.7 10.1799C6.2 9.11988 6.02 8.79988 4.9 8.79988C4.14 8.79988 4 8.85988 4 9.19988Z" fill="white"/>
<path d="M7.6001 9.19988C7.6001 9.49988 7.7401 9.59988 8.1001 9.59988C8.7001 9.59988 8.6801 9.55988 8.2801 10.4999C8.1201 10.8999 8.0001 11.4799 8.0401 11.7799C8.1201 12.5399 8.6601 12.4399 8.8201 11.6199C8.9001 11.2599 9.1201 10.6199 9.3001 10.1799C9.8001 9.11988 9.6201 8.79988 8.5001 8.79988C7.7401 8.79988 7.6001 8.85988 7.6001 9.19988Z" fill="white"/>
<path d="M11.2 9.19988C11.2 9.49988 11.34 9.59988 11.7 9.59988C12.3 9.59988 12.28 9.55988 11.88 10.4999C11.72 10.8999 11.6 11.4799 11.64 11.7799C11.72 12.5399 12.26 12.4399 12.42 11.6199C12.5 11.2599 12.72 10.6199 12.9 10.1799C13.4 9.11988 13.22 8.79988 12.1 8.79988C11.34 8.79988 11.2 8.85988 11.2 9.19988Z" fill="white"/>
</g>
<defs>
<clipPath id="clip0_16898_26">
<rect width="20" height="20" fill="white"/>
</clipPath>
</defs>
</svg>
